<?xml version="1.0" encoding="UTF-8"?>
<svg xmlns="http://www.w3.org/2000/svg" xmlns:xlink="http://www.w3.org/1999/xlink" width="200px" height="200px" viewBox="0 0 200 200" version="1.1">
<defs>
<filter id="alpha" filterUnits="objectBoundingBox" x="0%" y="0%" width="100%" height="100%">
  <feColorMatrix type="matrix" in="SourceGraphic" values="0 0 0 0 1 0 0 0 0 1 0 0 0 0 1 0 0 0 1 0"/>
</filter>
<mask id="mask0">
  <g filter="url(#alpha)">
<rect x="0" y="0" width="200" height="200" style="fill:rgb(0%,0%,0%);fill-opacity:0.921569;stroke:none;"/>
  </g>
</mask>
<clipPath id="clip1">
  <rect x="0" y="0" width="200" height="200"/>
</clipPath>
<g id="surface5" clip-path="url(#clip1)">
<path style=" stroke:none;fill-rule:evenodd;fill:rgb(0%,0%,0%);fill-opacity:1;" d="M 26.367188 -0.195312 C 27.539062 -0.195312 28.710938 -0.195312 29.882812 -0.195312 C 30.914062 0.511719 31.761719 1.421875 32.421875 2.539062 C 34.058594 5.222656 35.425781 8.023438 36.523438 10.9375 C 35.203125 15.332031 32.664062 16.179688 28.90625 13.476562 C 27.472656 10.871094 26.042969 8.269531 24.609375 5.664062 C 23.742188 3.253906 24.328125 1.300781 26.367188 -0.195312 Z M 26.367188 -0.195312 "/>
</g>
<mask id="mask1">
  <g filter="url(#alpha)">
<rect x="0" y="0" width="200" height="200" style="fill:rgb(0%,0%,0%);fill-opacity:0.921569;stroke:none;"/>
  </g>
</mask>
<clipPath id="clip2">
  <rect x="0" y="0" width="200" height="200"/>
</clipPath>
<g id="surface8" clip-path="url(#clip2)">
<path style=" stroke:none;fill-rule:evenodd;fill:rgb(0%,0%,0%);fill-opacity:1;" d="M 49.804688 -0.195312 C 51.105469 -0.195312 52.410156 -0.195312 53.710938 -0.195312 C 55.488281 1.222656 56.074219 3.042969 55.46875 5.273438 C 53.429688 8.636719 51.152344 11.824219 48.632812 14.84375 C 44.644531 15.945312 42.628906 14.449219 42.578125 10.351562 C 42.894531 9.199219 43.414062 8.160156 44.140625 7.226562 C 45.851562 4.570312 47.738281 2.097656 49.804688 -0.195312 Z M 49.804688 -0.195312 "/>
</g>
<mask id="mask2">
  <g filter="url(#alpha)">
<rect x="0" y="0" width="200" height="200" style="fill:rgb(0%,0%,0%);fill-opacity:0.988235;stroke:none;"/>
  </g>
</mask>
<clipPath id="clip3">
  <rect x="0" y="0" width="200" height="200"/>
</clipPath>
<g id="surface11" clip-path="url(#clip3)">
<path style=" stroke:none;fill-rule:evenodd;fill:rgb(0.392157%,0.392157%,0%);fill-opacity:1;" d="M 77.539062 -0.195312 C 79.621094 -0.195312 81.707031 -0.195312 83.789062 -0.195312 C 90.585938 2.191406 93.644531 7.007812 92.96875 14.257812 C 92.625 16.070312 91.976562 17.761719 91.015625 19.335938 C 85.871094 24.480469 80.730469 29.621094 75.585938 34.765625 C 81.652344 37.988281 83.867188 42.9375 82.226562 49.609375 C 88.859375 52.585938 91.59375 57.664062 90.429688 64.84375 C 97.847656 68.609375 100.320312 74.46875 97.851562 82.421875 C 105.011719 82.550781 112.175781 82.683594 119.335938 82.8125 C 120.683594 83.703125 121.464844 84.9375 121.679688 86.523438 C 121.117188 87.34375 120.664062 88.253906 120.3125 89.257812 C 119.667969 89.734375 118.953125 90.058594 118.164062 90.234375 C 108.917969 90.363281 99.675781 90.496094 90.429688 90.625 C 87.957031 93.097656 85.480469 95.574219 83.007812 98.046875 C 86.292969 98.082031 89.546875 98.34375 92.773438 98.828125 C 94.417969 100.46875 94.746094 102.355469 93.75 104.492188 C 93.234375 105.269531 92.519531 105.722656 91.601562 105.859375 C 88.609375 106.054688 85.613281 106.121094 82.617188 106.054688 C 82.617188 108.660156 82.617188 111.261719 82.617188 113.867188 C 85.355469 113.800781 88.089844 113.867188 90.820312 114.0625 C 93.546875 115.316406 94.265625 117.335938 92.96875 120.117188 C 92.351562 120.71875 91.636719 121.175781 90.820312 121.484375 C 88.089844 121.679688 85.355469 121.746094 82.617188 121.679688 C 82.617188 124.285156 82.617188 126.886719 82.617188 129.492188 C 86.035156 129.332031 89.421875 129.527344 92.773438 130.078125 C 94.855469 132.292969 94.855469 134.503906 92.773438 136.71875 C 92.382812 136.847656 91.992188 136.980469 91.601562 137.109375 C 86.914062 137.371094 82.226562 137.371094 77.539062 137.109375 C 76.710938 136.671875 75.992188 136.085938 75.390625 135.351562 C 74.878906 125.21875 74.621094 115.0625 74.609375 104.882812 C 54.996094 116.164062 36.050781 115.1875 17.773438 101.953125 C 15.363281 100.066406 13.214844 97.917969 11.328125 95.507812 C 9.535156 97.527344 8.363281 99.871094 7.8125 102.539062 C 7.550781 127.929688 7.550781 153.320312 7.8125 178.710938 C 8.863281 185.492188 12.707031 189.855469 19.335938 191.796875 C 72.460938 192.058594 125.585938 192.058594 178.710938 191.796875 C 186.199219 190.558594 190.558594 186.199219 191.796875 178.710938 C 192.058594 153.191406 192.058594 127.667969 191.796875 102.148438 C 190.234375 96.679688 186.78125 92.96875 181.445312 91.015625 C 171.429688 90.519531 161.40625 90.261719 151.367188 90.234375 C 149.765625 89.484375 148.855469 88.246094 148.632812 86.523438 C 148.507812 84.886719 149.160156 83.648438 150.585938 82.8125 C 161.414062 82.433594 172.21875 82.566406 183.007812 83.203125 C 191.910156 86.050781 197.511719 91.976562 199.804688 100.976562 C 199.804688 127.800781 199.804688 154.621094 199.804688 181.445312 C 197.15625 191.253906 190.90625 197.375 181.054688 199.804688 C 126.886719 199.804688 72.722656 199.804688 18.554688 199.804688 C 8.703125 197.375 2.453125 191.253906 -0.195312 181.445312 C -0.195312 154.621094 -0.195312 127.800781 -0.195312 100.976562 C 0.839844 96.371094 3.050781 92.398438 6.445312 89.0625 C 3.011719 83.125 0.800781 76.8125 -0.195312 70.117188 C -0.195312 66.082031 -0.195312 62.042969 -0.195312 58.007812 C 0.4375 55.046875 1.152344 52.050781 1.953125 49.023438 C 2.277344 41.726562 2.667969 34.4375 3.125 27.148438 C 5.839844 18.984375 11.503906 15.53125 20.117188 16.796875 C 25.734375 18.507812 29.183594 22.21875 30.46875 27.929688 C 30.988281 31.574219 31.511719 35.222656 32.03125 38.867188 C 32.328125 39.703125 32.914062 40.222656 33.789062 40.429688 C 45.296875 29.507812 56.625 18.375 67.773438 7.03125 C 69.714844 5.480469 71.535156 3.789062 73.242188 1.953125 C 74.617188 1.042969 76.046875 0.328125 77.539062 -0.195312 Z M 77.539062 -0.195312 "/>
</g>
<mask id="mask3">
  <g filter="url(#alpha)">
<rect x="0" y="0" width="200" height="200" style="fill:rgb(0%,0%,0%);fill-opacity:0.945098;stroke:none;"/>
  </g>
</mask>
<clipPath id="clip4">
  <rect x="0" y="0" width="200" height="200"/>
</clipPath>
<g id="surface14" clip-path="url(#clip4)">
<path style=" stroke:none;fill-rule:evenodd;fill:rgb(0.392157%,1.176471%,0.784314%);fill-opacity:1;" d="M 139.257812 86.523438 C 138.707031 87.449219 138.183594 88.425781 137.695312 89.453125 C 134.25 91.246094 132.039062 90.269531 131.054688 86.523438 C 131.050781 83.921875 132.355469 82.621094 134.960938 82.617188 C 137.5 82.679688 138.929688 83.984375 139.257812 86.523438 Z M 139.257812 86.523438 "/>
</g>
</defs>
<g id="surface1">
<use xlink:href="#surface5" mask="url(#mask0)"/>
<use xlink:href="#surface8" mask="url(#mask1)"/>
<use xlink:href="#surface11" mask="url(#mask2)"/>
<path style=" stroke:none;fill-rule:evenodd;fill:rgb(97.254902%,77.647059%,62.745098%);fill-opacity:1;" d="M 79.101562 7.617188 C 84.070312 7.574219 85.828125 9.917969 84.375 14.648438 C 74.609375 24.414062 64.84375 34.179688 55.078125 43.945312 C 51.632812 48.625 51.242188 53.570312 53.90625 58.789062 C 55.675781 61.398438 58.085938 63.089844 61.132812 63.867188 C 60.011719 71.390625 63.007812 76.46875 70.117188 79.101562 C 69.796875 85.171875 72.273438 89.664062 77.539062 92.578125 C 64.621094 104.644531 49.777344 107.769531 33.007812 101.953125 C 15.027344 93.410156 6.628906 79.152344 7.8125 59.179688 C 8.128906 56.488281 8.78125 53.882812 9.765625 51.367188 C 10.085938 43.8125 10.476562 36.257812 10.9375 28.710938 C 12.910156 24.566406 15.96875 23.460938 20.117188 25.390625 C 21.304688 26.402344 22.152344 27.640625 22.65625 29.101562 C 23.234375 33.410156 23.886719 37.707031 24.609375 41.992188 C 26.949219 46.839844 30.789062 48.859375 36.132812 48.046875 C 37.742188 47.570312 39.171875 46.789062 40.429688 45.703125 C 53.171875 32.765625 66.0625 20.070312 79.101562 7.617188 Z M 79.101562 7.617188 "/>
<path style=" stroke:none;fill-rule:evenodd;fill:rgb(95.686275%,76.470588%,61.568627%);fill-opacity:1;" d="M 68.945312 41.601562 C 73.707031 41.507812 75.464844 43.71875 74.21875 48.242188 C 71.808594 51.171875 69.140625 53.839844 66.210938 56.25 C 61.328125 57.097656 59.308594 55.078125 60.15625 50.195312 C 62.796875 46.96875 65.726562 44.101562 68.945312 41.601562 Z M 68.945312 41.601562 "/>
<path style=" stroke:none;fill-rule:evenodd;fill:rgb(96.862745%,77.254902%,62.352941%);fill-opacity:1;" d="M 77.148438 57.226562 C 81.375 57.222656 83.132812 59.304688 82.421875 63.476562 C 80.285156 66.003906 78.007812 68.414062 75.585938 70.703125 C 70.992188 72.222656 68.714844 70.597656 68.75 65.820312 C 71.105469 62.488281 73.90625 59.625 77.148438 57.226562 Z M 77.148438 57.226562 "/>
<path style=" stroke:none;fill-rule:evenodd;fill:rgb(96.078431%,76.862745%,61.568627%);fill-opacity:1;" d="M 84.960938 72.851562 C 89.398438 72.667969 91.289062 74.75 90.625 79.101562 C 88.71875 81.65625 86.441406 83.804688 83.789062 85.546875 C 80.023438 85.820312 78.136719 84.0625 78.125 80.273438 C 80.066406 77.488281 82.34375 75.011719 84.960938 72.851562 Z M 84.960938 72.851562 "/>
<use xlink:href="#surface14" mask="url(#mask3)"/>
<path style=" stroke:none;fill-rule:evenodd;fill:rgb(52.156863%,90.588235%,61.568627%);fill-opacity:1;" d="M 121.679688 86.523438 C 124.804688 86.523438 127.929688 86.523438 131.054688 86.523438 C 132.039062 90.269531 134.25 91.246094 137.695312 89.453125 C 138.183594 88.425781 138.707031 87.449219 139.257812 86.523438 C 142.382812 86.523438 145.507812 86.523438 148.632812 86.523438 C 148.855469 88.246094 149.765625 89.484375 151.367188 90.234375 C 161.40625 90.261719 171.429688 90.519531 181.445312 91.015625 C 186.78125 92.96875 190.234375 96.679688 191.796875 102.148438 C 192.058594 127.667969 192.058594 153.191406 191.796875 178.710938 C 190.558594 186.199219 186.199219 190.558594 178.710938 191.796875 C 125.585938 192.058594 72.460938 192.058594 19.335938 191.796875 C 12.707031 189.855469 8.863281 185.492188 7.8125 178.710938 C 7.550781 153.320312 7.550781 127.929688 7.8125 102.539062 C 8.363281 99.871094 9.535156 97.527344 11.328125 95.507812 C 13.214844 97.917969 15.363281 100.066406 17.773438 101.953125 C 36.050781 115.1875 54.996094 116.164062 74.609375 104.882812 C 74.621094 115.0625 74.878906 125.21875 75.390625 135.351562 C 75.992188 136.085938 76.710938 136.671875 77.539062 137.109375 C 82.226562 137.371094 86.914062 137.371094 91.601562 137.109375 C 91.992188 136.980469 92.382812 136.847656 92.773438 136.71875 C 94.855469 134.503906 94.855469 132.292969 92.773438 130.078125 C 89.421875 129.527344 86.035156 129.332031 82.617188 129.492188 C 82.617188 126.886719 82.617188 124.285156 82.617188 121.679688 C 85.355469 121.746094 88.089844 121.679688 90.820312 121.484375 C 91.636719 121.175781 92.351562 120.71875 92.96875 120.117188 C 94.265625 117.335938 93.546875 115.316406 90.820312 114.0625 C 88.089844 113.867188 85.355469 113.800781 82.617188 113.867188 C 82.617188 111.261719 82.617188 108.660156 82.617188 106.054688 C 85.613281 106.121094 88.609375 106.054688 91.601562 105.859375 C 92.519531 105.722656 93.234375 105.269531 93.75 104.492188 C 94.746094 102.355469 94.417969 100.46875 92.773438 98.828125 C 89.546875 98.34375 86.292969 98.082031 83.007812 98.046875 C 85.480469 95.574219 87.957031 93.097656 90.429688 90.625 C 99.675781 90.496094 108.917969 90.363281 118.164062 90.234375 C 118.953125 90.058594 119.667969 89.734375 120.3125 89.257812 C 120.664062 88.253906 121.117188 87.34375 121.679688 86.523438 Z M 121.679688 86.523438 "/>
<path style=" stroke:none;fill-rule:evenodd;fill:rgb(0.392157%,1.176471%,0.784314%);fill-opacity:1;" d="M 112.304688 98.242188 C 115.105469 97.847656 117.121094 98.890625 118.359375 101.367188 C 121.796875 111.554688 125.3125 121.710938 128.90625 131.835938 C 129.386719 136.246094 127.5 137.875 123.242188 136.71875 C 122.785156 136.261719 122.332031 135.808594 121.875 135.351562 C 121.3125 133.394531 120.59375 131.507812 119.726562 129.6875 C 115.8125 129.363281 111.90625 129.425781 108.007812 129.882812 C 107.199219 131.980469 106.351562 134.066406 105.46875 136.132812 C 102.675781 138.046875 100.460938 137.527344 98.828125 134.570312 C 98.566406 133.789062 98.566406 133.007812 98.828125 132.226562 C 102.472656 121.808594 106.121094 111.394531 109.765625 100.976562 C 110.425781 99.859375 111.273438 98.949219 112.304688 98.242188 Z M 112.304688 98.242188 "/>
<path style=" stroke:none;fill-rule:evenodd;fill:rgb(0.784314%,1.176471%,0.784314%);fill-opacity:1;" d="M 140.429688 98.242188 C 146.328125 97.746094 151.472656 99.4375 155.859375 103.320312 C 157.015625 107.578125 155.386719 109.464844 150.976562 108.984375 C 148.246094 106.726562 145.121094 105.816406 141.601562 106.25 C 138.878906 107.011719 138.226562 108.574219 139.648438 110.9375 C 143.683594 112.628906 147.722656 114.324219 151.757812 116.015625 C 157.769531 120.390625 158.875 125.792969 155.078125 132.226562 C 149.890625 137.507812 143.835938 138.742188 136.914062 135.9375 C 134.058594 135.234375 132.367188 133.476562 131.835938 130.664062 C 132.464844 127.675781 134.289062 126.570312 137.304688 127.34375 C 140.292969 129.480469 143.546875 130 147.070312 128.90625 C 149.636719 127.347656 150.027344 125.394531 148.242188 123.046875 C 143.816406 121.09375 139.386719 119.140625 134.960938 117.1875 C 130.511719 112.902344 129.925781 108.148438 133.203125 102.929688 C 135.171875 100.628906 137.578125 99.066406 140.429688 98.242188 Z M 140.429688 98.242188 "/>
<path style=" stroke:none;fill-rule:evenodd;fill:rgb(0.784314%,1.568627%,0.784314%);fill-opacity:1;" d="M 162.304688 98.242188 C 164.058594 98.042969 165.554688 98.566406 166.796875 99.804688 C 168.363281 102.941406 170.121094 105.9375 172.070312 108.789062 C 173.796875 105.988281 175.425781 103.125 176.953125 100.195312 C 179.4375 97.527344 181.78125 97.65625 183.984375 100.585938 C 184.257812 101.925781 184.128906 103.226562 183.59375 104.492188 C 181.121094 108.917969 178.644531 113.347656 176.171875 117.773438 C 176.042969 123.242188 175.910156 128.710938 175.78125 134.179688 C 174.300781 137.363281 172.085938 138.015625 169.140625 136.132812 C 168.878906 135.613281 168.621094 135.089844 168.359375 134.570312 C 168.230469 129.101562 168.097656 123.632812 167.96875 118.164062 C 165.136719 113.148438 162.402344 108.070312 159.765625 102.929688 C 159.507812 100.777344 160.355469 99.214844 162.304688 98.242188 Z M 162.304688 98.242188 "/>
<path style=" stroke:none;fill-rule:evenodd;fill:rgb(50.196078%,87.45098%,59.215686%);fill-opacity:1;" d="M 116.992188 121.679688 C 114.960938 121.804688 113.007812 121.675781 111.132812 121.289062 C 111.761719 118.421875 112.738281 115.6875 114.0625 113.085938 C 115.160156 115.921875 116.136719 118.785156 116.992188 121.679688 Z M 116.992188 121.679688 "/>
<path style=" stroke:none;fill-rule:evenodd;fill:rgb(17.647059%,30.588235%,20.784314%);fill-opacity:1;" d="M 111.132812 121.289062 C 113.007812 121.675781 114.960938 121.804688 116.992188 121.679688 C 114.96875 122.195312 112.886719 122.195312 110.742188 121.679688 C 110.789062 121.441406 110.921875 121.3125 111.132812 121.289062 Z M 111.132812 121.289062 "/>
<path style=" stroke:none;fill-rule:evenodd;fill:rgb(0%,0.392157%,0.392157%);fill-opacity:1;" d="M 18.164062 145.117188 C 24.023438 145.050781 29.882812 145.117188 35.742188 145.3125 C 38.550781 146.304688 39.394531 148.195312 38.28125 150.976562 C 37.640625 151.878906 36.796875 152.464844 35.742188 152.734375 C 34.183594 152.929688 32.621094 152.996094 31.054688 152.929688 C 31.121094 162.304688 31.054688 171.679688 30.859375 181.054688 C 29.484375 184.117188 27.335938 184.832031 24.414062 183.203125 C 24.039062 182.648438 23.714844 182.0625 23.4375 181.445312 C 23.242188 171.941406 23.175781 162.4375 23.242188 152.929688 C 21.542969 152.996094 19.851562 152.929688 18.164062 152.734375 C 15.441406 151.203125 14.855469 149.054688 16.40625 146.289062 C 17.050781 145.9375 17.636719 145.546875 18.164062 145.117188 Z M 18.164062 145.117188 "/>
<path style=" stroke:none;fill-rule:evenodd;fill:rgb(0.392157%,0.784314%,0.392157%);fill-opacity:1;" d="M 56.445312 145.117188 C 64.566406 144.71875 69.839844 148.367188 72.265625 156.054688 C 72.527344 161.394531 72.527344 166.730469 72.265625 172.070312 C 70.066406 181.542969 64.140625 185.382812 54.492188 183.59375 C 49.113281 181.597656 46.050781 177.757812 45.3125 172.070312 C 44.949219 166.1875 45.078125 160.328125 45.703125 154.492188 C 47.679688 149.453125 51.257812 146.328125 56.445312 145.117188 Z M 56.445312 145.117188 "/>
<path style=" stroke:none;fill-rule:evenodd;fill:rgb(0.784314%,1.176471%,0.784314%);fill-opacity:1;" d="M 137.304688 145.117188 C 141.578125 144.875 145.617188 145.71875 149.414062 147.65625 C 150.734375 148.410156 151.84375 149.386719 152.734375 150.585938 C 153.382812 154.492188 151.757812 156.25 147.851562 155.859375 C 144.933594 153.671875 141.679688 152.757812 138.085938 153.125 C 135.710938 154.113281 135.191406 155.675781 136.523438 157.8125 C 139.355469 159.0625 142.222656 160.234375 145.117188 161.328125 C 153.980469 165.046875 156.128906 171.101562 151.5625 179.492188 C 147.585938 183.335938 142.835938 184.832031 137.304688 183.984375 C 133.710938 183.328125 130.648438 181.699219 128.125 179.101562 C 126.929688 174.828125 128.558594 172.9375 133.007812 173.4375 C 136.386719 176.464844 140.160156 177.117188 144.335938 175.390625 C 146.898438 173.40625 146.898438 171.453125 144.335938 169.53125 C 140.253906 167.945312 136.21875 166.253906 132.226562 164.453125 C 127.664062 160.632812 126.6875 156.007812 129.296875 150.585938 C 131.351562 147.835938 134.019531 146.011719 137.304688 145.117188 Z M 137.304688 145.117188 "/>
<path style=" stroke:none;fill-rule:evenodd;fill:rgb(0.392157%,0.392157%,0.392157%);fill-opacity:1;" d="M 166.210938 145.117188 C 171.160156 145.050781 176.109375 145.117188 181.054688 145.3125 C 184.714844 147.074219 185.105469 149.417969 182.226562 152.34375 C 178.613281 152.898438 174.96875 153.09375 171.289062 152.929688 C 171.289062 155.535156 171.289062 158.136719 171.289062 160.742188 C 174.285156 160.675781 177.28125 160.742188 180.273438 160.9375 C 182.726562 161.871094 183.570312 163.628906 182.8125 166.210938 C 182.507812 166.910156 182.050781 167.496094 181.445312 167.96875 C 178.09375 168.519531 174.707031 168.714844 171.289062 168.554688 C 171.289062 171.160156 171.289062 173.761719 171.289062 176.367188 C 174.546875 176.300781 177.800781 176.367188 181.054688 176.5625 C 183.863281 177.554688 184.707031 179.445312 183.59375 182.226562 C 182.953125 183.128906 182.109375 183.714844 181.054688 183.984375 C 176.105469 184.246094 171.160156 184.246094 166.210938 183.984375 C 165.382812 183.546875 164.664062 182.960938 164.0625 182.226562 C 163.421875 170.792969 163.289062 159.335938 163.671875 147.851562 C 164.332031 146.734375 165.179688 145.824219 166.210938 145.117188 Z M 166.210938 145.117188 "/>
<path style=" stroke:none;fill-rule:evenodd;fill:rgb(0.784314%,1.176471%,0.784314%);fill-opacity:1;" d="M 95.117188 145.507812 C 97.585938 145.144531 99.34375 146.058594 100.390625 148.242188 C 100.519531 156.574219 100.652344 164.910156 100.78125 173.242188 C 103.242188 176.6875 106.304688 177.273438 109.960938 175 C 110.5625 174.382812 111.019531 173.667969 111.328125 172.851562 C 111.335938 164.222656 111.597656 155.628906 112.109375 147.070312 C 113.941406 145.226562 115.960938 145.03125 118.164062 146.484375 C 118.539062 147.039062 118.863281 147.625 119.140625 148.242188 C 119.402344 156.707031 119.402344 165.167969 119.140625 173.632812 C 117.652344 179.675781 113.8125 183.128906 107.617188 183.984375 C 101.484375 184.5 96.863281 182.089844 93.75 176.757812 C 93.390625 175.742188 93.128906 174.699219 92.96875 173.632812 C 92.707031 165.039062 92.707031 156.445312 92.96875 147.851562 C 93.5 146.867188 94.214844 146.085938 95.117188 145.507812 Z M 95.117188 145.507812 "/>
<path style=" stroke:none;fill-rule:evenodd;fill:rgb(51.764706%,90.196078%,61.176471%);fill-opacity:1;" d="M 57.226562 152.929688 C 60.78125 152.523438 63.1875 153.957031 64.453125 157.226562 C 64.714844 162.042969 64.714844 166.863281 64.453125 171.679688 C 63.695312 174.726562 61.742188 176.289062 58.59375 176.367188 C 55.582031 176.167969 53.761719 174.605469 53.125 171.679688 C 52.863281 166.863281 52.863281 162.042969 53.125 157.226562 C 53.78125 155.070312 55.148438 153.640625 57.226562 152.929688 Z M 57.226562 152.929688 "/>
</g>
</svg>
