<?xml version="1.0" encoding="UTF-8" standalone="no"?>
<!DOCTYPE svg PUBLIC "-//W3C//DTD SVG 1.1//EN" "http://www.w3.org/Graphics/SVG/1.1/DTD/svg11.dtd">
<svg xmlns="http://www.w3.org/2000/svg" version="1.1" viewBox="0.00 0.00 300.00 300.00">
<g stroke-width="2.00" fill="none" stroke-linecap="butt">
<path stroke="#328f5b" vector-effect="non-scaling-stroke" d="
  M 171.27 38.22
  L 56.87 81.10
  Q 56.41 81.28 56.68 81.69
  Q 58.03 83.71 60.08 84.16
  Q 61.55 84.48 64.27 83.45
  Q 117.68 63.42 171.07 43.38
  Q 171.54 43.21 171.53 42.71
  L 171.51 38.39
  A 0.18 0.18 0.0 0 0 171.27 38.22"
/>
<path stroke="#328f5b" vector-effect="non-scaling-stroke" d="
  M 192.00 59.58
  L 193.86 59.38
  A 0.72 0.71 -3.1 0 0 194.50 58.67
  L 194.50 52.76
  Q 194.50 52.28 194.05 52.45
  Q 135.95 74.33 77.77 96.01
  Q 76.83 96.36 76.12 96.38
  Q 75.73 96.39 76.05 96.62
  C 78.43 98.28 80.61 101.40 84.24 100.04
  Q 137.56 80.11 190.80 60.00
  Q 191.03 59.92 191.25 59.80
  Q 191.60 59.62 192.00 59.58"
/>
<path stroke="#93b8a4" vector-effect="non-scaling-stroke" d="
  M 114.93 209.72
  Q 113.45 210.50 112.31 208.94
  Q 110.29 206.17 108.26 203.05
  A 1.33 1.32 -49.6 0 0 105.94 203.24
  C 104.98 205.40 102.11 212.99 100.17 214.05
  A 1.19 1.19 0.0 0 1 98.42 213.00
  L 98.42 110.85
  Q 98.42 110.13 97.74 110.39
  L 87.80 114.16
  A 0.94 0.94 0.0 0 0 87.19 115.04
  L 87.18 256.54
  A 0.45 0.45 0.0 0 0 87.79 256.96
  L 191.46 218.37
  Q 191.90 218.20 192.11 217.78
  Q 203.07 195.07 213.84 172.20
  Q 214.86 170.02 214.87 167.61
  Q 215.06 117.37 214.87 67.15
  Q 214.87 66.53 214.28 66.75
  L 116.46 103.42
  A 1.45 1.45 0.0 0 0 115.51 104.78
  L 115.52 208.75
  A 1.10 1.09 -14.0 0 1 114.93 209.72"
/>
<path stroke="#328f5b" vector-effect="non-scaling-stroke" d="
  M 72.09 113.57
  L 48.80 95.78
  Q 48.46 95.52 48.46 95.95
  L 48.47 230.45
  A 2.53 2.52 18.7 0 0 49.47 232.46
  L 72.21 249.83
  Q 72.50 250.05 72.50 249.68
  L 72.50 114.41
  Q 72.50 113.88 72.09 113.57"
/>
<path stroke="#328f5b" vector-effect="non-scaling-stroke" d="
  M 221.22 191.46
  Q 220.93 191.20 220.68 191.28
  Q 220.38 191.37 220.66 191.50
  L 224.65 193.34
  Q 225.09 193.54 225.57 193.46
  Q 226.66 193.28 227.21 194.21
  A 1.08 1.08 0.0 0 0 229.11 194.12
  L 259.45 130.30
  Q 259.66 129.86 259.22 129.63
  L 252.20 126.03
  Q 251.88 125.86 251.73 126.18
  L 222.74 186.91
  Q 222.54 187.34 222.56 187.81
  Q 222.60 188.69 221.80 189.08
  A 0.69 0.68 74.1 0 0 221.42 189.77
  L 221.57 191.28
  A 0.21 0.21 0.0 0 1 221.22 191.46"
/>
<path stroke="#93b8a4" vector-effect="non-scaling-stroke" d="
  M 224.1375 209.5118
  A 0.80 0.80 0.0 0 0 223.7562 208.4467
  L 213.3954 203.5492
  A 0.80 0.80 0.0 0 0 212.3302 203.9306
  L 209.0225 210.9282
  A 0.80 0.80 0.0 0 0 209.4038 211.9933
  L 219.7646 216.8908
  A 0.80 0.80 0.0 0 0 220.8298 216.5094
  L 224.1375 209.5118"
/>
<path stroke="#328f5b" vector-effect="non-scaling-stroke" d="
  M 201.33 240.50
  Q 200.27 242.16 200.43 244.19
  Q 200.46 244.58 200.74 244.30
  Q 204.06 240.86 207.44 237.48
  C 209.78 235.14 210.89 232.43 212.32 229.55
  Q 212.58 229.04 212.04 228.84
  L 204.45 225.94
  Q 203.97 225.76 203.75 226.22
  Q 200.69 232.33 201.62 239.21
  A 1.94 1.92 57.9 0 1 201.33 240.50"
/>
<path stroke="#90ae9d" vector-effect="non-scaling-stroke" d="
  M 178.42 161.35
  Q 166.87 144.51 152.37 130.11
  Q 148.73 126.50 143.54 128.04
  Q 143.15 128.16 143.16 128.58
  L 145.28 190.05
  Q 145.30 190.79 146.05 190.71
  L 157.70 189.40
  Q 158.24 189.34 158.21 188.80
  L 156.48 152.00
  A 0.23 0.23 0.0 0 1 156.90 151.85
  L 182.54 185.94
  Q 183.30 186.96 184.57 186.84
  L 191.01 186.22
  Q 191.49 186.17 191.49 185.69
  Q 191.23 157.35 189.25 132.50
  Q 188.98 129.10 187.35 125.51
  A 1.76 1.72 -86.4 0 0 186.73 124.79
  C 184.16 123.15 180.68 123.84 177.27 124.66
  Q 176.83 124.76 176.85 125.22
  L 178.87 161.19
  Q 178.92 162.08 178.42 161.35"
/>
</g>
<path fill="#277148" d="
  M 227.31 142.31
  A 0.39 0.39 0.0 0 0 228.05 142.48
  Q 234.81 128.15 241.45 114.16
  C 244.77 107.16 247.63 108.18 253.59 110.94
  Q 263.10 115.33 272.52 119.89
  Q 275.25 121.21 276.14 123.03
  Q 277.44 125.71 276.16 128.42
  Q 249.09 185.47 221.84 242.88
  A 4.67 4.50 81.6 0 1 220.92 244.17
  Q 208.42 256.43 195.41 268.39
  Q 193.41 270.23 191.45 270.36
  Q 187.05 270.66 184.81 266.35
  A 1.72 1.69 34.0 0 1 184.62 265.42
  Q 185.23 257.21 185.80 249.03
  C 186.10 244.72 186.89 238.94 186.66 233.80
  Q 186.64 233.16 186.04 233.39
  Q 134.50 252.65 83.07 272.06
  C 80.87 272.88 79.13 272.62 77.17 271.14
  Q 56.36 255.31 35.59 239.42
  Q 33.37 237.73 33.38 234.38
  Q 33.63 158.01 33.59 81.63
  Q 33.58 77.59 34.40 76.00
  C 35.55 73.79 37.90 72.94 40.22 72.07
  Q 108.78 46.30 177.41 20.68
  C 180.84 19.40 182.92 20.16 185.07 22.84
  Q 186.16 24.20 186.19 26.61
  Q 186.28 33.05 186.27 39.37
  A 0.46 0.45 -10.1 0 0 186.89 39.80
  Q 194.00 37.11 201.23 34.44
  C 206.27 32.58 209.39 36.36 209.46 41.04
  Q 209.55 47.85 209.48 54.51
  A 0.72 0.72 0.0 0 0 210.47 55.19
  Q 213.84 53.86 217.37 52.57
  C 223.62 50.27 227.28 52.70 227.27 59.21
  Q 227.22 100.92 227.31 142.31
  Z
  M 171.27 38.22
  L 56.87 81.10
  Q 56.41 81.28 56.68 81.69
  Q 58.03 83.71 60.08 84.16
  Q 61.55 84.48 64.27 83.45
  Q 117.68 63.42 171.07 43.38
  Q 171.54 43.21 171.53 42.71
  L 171.51 38.39
  A 0.18 0.18 0.0 0 0 171.27 38.22
  Z
  M 192.00 59.58
  L 193.86 59.38
  A 0.72 0.71 -3.1 0 0 194.50 58.67
  L 194.50 52.76
  Q 194.50 52.28 194.05 52.45
  Q 135.95 74.33 77.77 96.01
  Q 76.83 96.36 76.12 96.38
  Q 75.73 96.39 76.05 96.62
  C 78.43 98.28 80.61 101.40 84.24 100.04
  Q 137.56 80.11 190.80 60.00
  Q 191.03 59.92 191.25 59.80
  Q 191.60 59.62 192.00 59.58
  Z
  M 114.93 209.72
  Q 113.45 210.50 112.31 208.94
  Q 110.29 206.17 108.26 203.05
  A 1.33 1.32 -49.6 0 0 105.94 203.24
  C 104.98 205.40 102.11 212.99 100.17 214.05
  A 1.19 1.19 0.0 0 1 98.42 213.00
  L 98.42 110.85
  Q 98.42 110.13 97.74 110.39
  L 87.80 114.16
  A 0.94 0.94 0.0 0 0 87.19 115.04
  L 87.18 256.54
  A 0.45 0.45 0.0 0 0 87.79 256.96
  L 191.46 218.37
  Q 191.90 218.20 192.11 217.78
  Q 203.07 195.07 213.84 172.20
  Q 214.86 170.02 214.87 167.61
  Q 215.06 117.37 214.87 67.15
  Q 214.87 66.53 214.28 66.75
  L 116.46 103.42
  A 1.45 1.45 0.0 0 0 115.51 104.78
  L 115.52 208.75
  A 1.10 1.09 -14.0 0 1 114.93 209.72
  Z
  M 72.09 113.57
  L 48.80 95.78
  Q 48.46 95.52 48.46 95.95
  L 48.47 230.45
  A 2.53 2.52 18.7 0 0 49.47 232.46
  L 72.21 249.83
  Q 72.50 250.05 72.50 249.68
  L 72.50 114.41
  Q 72.50 113.88 72.09 113.57
  Z
  M 221.22 191.46
  Q 220.93 191.20 220.68 191.28
  Q 220.38 191.37 220.66 191.50
  L 224.65 193.34
  Q 225.09 193.54 225.57 193.46
  Q 226.66 193.28 227.21 194.21
  A 1.08 1.08 0.0 0 0 229.11 194.12
  L 259.45 130.30
  Q 259.66 129.86 259.22 129.63
  L 252.20 126.03
  Q 251.88 125.86 251.73 126.18
  L 222.74 186.91
  Q 222.54 187.34 222.56 187.81
  Q 222.60 188.69 221.80 189.08
  A 0.69 0.68 74.1 0 0 221.42 189.77
  L 221.57 191.28
  A 0.21 0.21 0.0 0 1 221.22 191.46
  Z
  M 224.1375 209.5118
  A 0.80 0.80 0.0 0 0 223.7562 208.4467
  L 213.3954 203.5492
  A 0.80 0.80 0.0 0 0 212.3302 203.9306
  L 209.0225 210.9282
  A 0.80 0.80 0.0 0 0 209.4038 211.9933
  L 219.7646 216.8908
  A 0.80 0.80 0.0 0 0 220.8298 216.5094
  L 224.1375 209.5118
  Z
  M 201.33 240.50
  Q 200.27 242.16 200.43 244.19
  Q 200.46 244.58 200.74 244.30
  Q 204.06 240.86 207.44 237.48
  C 209.78 235.14 210.89 232.43 212.32 229.55
  Q 212.58 229.04 212.04 228.84
  L 204.45 225.94
  Q 203.97 225.76 203.75 226.22
  Q 200.69 232.33 201.62 239.21
  A 1.94 1.92 57.9 0 1 201.33 240.50
  Z"
/>
<path fill="#3cad6e" d="
  M 56.87 81.10
  L 171.27 38.22
  A 0.18 0.18 0.0 0 1 171.51 38.39
  L 171.53 42.71
  Q 171.54 43.21 171.07 43.38
  Q 117.68 63.42 64.27 83.45
  Q 61.55 84.48 60.08 84.16
  Q 58.03 83.71 56.68 81.69
  Q 56.41 81.28 56.87 81.10
  Z"
/>
<path fill="#3cad6e" d="
  M 191.25 59.80
  Q 191.03 59.92 190.80 60.00
  Q 137.56 80.11 84.24 100.04
  C 80.61 101.40 78.43 98.28 76.05 96.62
  Q 75.73 96.39 76.12 96.38
  Q 76.83 96.36 77.77 96.01
  Q 135.95 74.33 194.05 52.45
  Q 194.50 52.28 194.50 52.76
  L 194.50 58.67
  A 0.72 0.71 -3.1 0 1 193.86 59.38
  L 192.00 59.58
  Q 191.60 59.62 191.25 59.80
  Z"
/>
<path fill="#ffffff" d="
  M 114.93 209.72
  A 1.10 1.09 -14.0 0 0 115.52 208.75
  L 115.51 104.78
  A 1.45 1.45 0.0 0 1 116.46 103.42
  L 214.28 66.75
  Q 214.87 66.53 214.87 67.15
  Q 215.06 117.37 214.87 167.61
  Q 214.86 170.02 213.84 172.20
  Q 203.07 195.07 192.11 217.78
  Q 191.90 218.20 191.46 218.37
  L 87.79 256.96
  A 0.45 0.45 0.0 0 1 87.18 256.54
  L 87.19 115.04
  A 0.94 0.94 0.0 0 1 87.80 114.16
  L 97.74 110.39
  Q 98.42 110.13 98.42 110.85
  L 98.42 213.00
  A 1.19 1.19 0.0 0 0 100.17 214.05
  C 102.11 212.99 104.98 205.40 105.94 203.24
  A 1.33 1.32 -49.6 0 1 108.26 203.05
  Q 110.29 206.17 112.31 208.94
  Q 113.45 210.50 114.93 209.72
  Z
  M 178.42 161.35
  Q 166.87 144.51 152.37 130.11
  Q 148.73 126.50 143.54 128.04
  Q 143.15 128.16 143.16 128.58
  L 145.28 190.05
  Q 145.30 190.79 146.05 190.71
  L 157.70 189.40
  Q 158.24 189.34 158.21 188.80
  L 156.48 152.00
  A 0.23 0.23 0.0 0 1 156.90 151.85
  L 182.54 185.94
  Q 183.30 186.96 184.57 186.84
  L 191.01 186.22
  Q 191.49 186.17 191.49 185.69
  Q 191.23 157.35 189.25 132.50
  Q 188.98 129.10 187.35 125.51
  A 1.76 1.72 -86.4 0 0 186.73 124.79
  C 184.16 123.15 180.68 123.84 177.27 124.66
  Q 176.83 124.76 176.85 125.22
  L 178.87 161.19
  Q 178.92 162.08 178.42 161.35
  Z"
/>
<path fill="#3cad6e" d="
  M 48.80 95.78
  L 72.09 113.57
  Q 72.50 113.88 72.50 114.41
  L 72.50 249.68
  Q 72.50 250.05 72.21 249.83
  L 49.47 232.46
  A 2.53 2.52 18.7 0 1 48.47 230.45
  L 48.46 95.95
  Q 48.46 95.52 48.80 95.78
  Z"
/>
<path fill="#205d3b" d="
  M 178.87 161.19
  L 176.85 125.22
  Q 176.83 124.76 177.27 124.66
  C 180.68 123.84 184.16 123.15 186.73 124.79
  A 1.76 1.72 -86.4 0 1 187.35 125.51
  Q 188.98 129.10 189.25 132.50
  Q 191.23 157.35 191.49 185.69
  Q 191.49 186.17 191.01 186.22
  L 184.57 186.84
  Q 183.30 186.96 182.54 185.94
  L 156.90 151.85
  A 0.23 0.23 0.0 0 0 156.48 152.00
  L 158.21 188.80
  Q 158.24 189.34 157.70 189.40
  L 146.05 190.71
  Q 145.30 190.79 145.28 190.05
  L 143.16 128.58
  Q 143.15 128.16 143.54 128.04
  Q 148.73 126.50 152.37 130.11
  Q 166.87 144.51 178.42 161.35
  Q 178.92 162.08 178.87 161.19
  Z"
/>
<path fill="#3cad6e" d="
  M 221.57 191.28
  L 221.42 189.77
  A 0.69 0.68 74.1 0 1 221.80 189.08
  Q 222.60 188.69 222.56 187.81
  Q 222.54 187.34 222.74 186.91
  L 251.73 126.18
  Q 251.88 125.86 252.20 126.03
  L 259.22 129.63
  Q 259.66 129.86 259.45 130.30
  L 229.11 194.12
  A 1.08 1.08 0.0 0 1 227.21 194.21
  Q 226.66 193.28 225.57 193.46
  Q 225.09 193.54 224.65 193.34
  L 220.66 191.50
  Q 220.38 191.37 220.68 191.28
  Q 220.93 191.20 221.22 191.46
  A 0.21 0.21 0.0 0 0 221.57 191.28
  Z"
/>
<rect fill="#ffffff" x="-6.53" y="-4.67" transform="translate(216.58,210.22) rotate(25.3)" width="13.06" height="9.34" rx="0.80"/>
<path fill="#3cad6e" d="
  M 201.62 239.21
  Q 200.69 232.33 203.75 226.22
  Q 203.97 225.76 204.45 225.94
  L 212.04 228.84
  Q 212.58 229.04 212.32 229.55
  C 210.89 232.43 209.78 235.14 207.44 237.48
  Q 204.06 240.86 200.74 244.30
  Q 200.46 244.58 200.43 244.19
  Q 200.27 242.16 201.33 240.50
  A 1.94 1.92 57.9 0 0 201.62 239.21
  Z"
/>
</svg>
