<?xml version="1.0" encoding="UTF-8"?>
<svg xmlns="http://www.w3.org/2000/svg" xmlns:xlink="http://www.w3.org/1999/xlink" width="200px" height="200px" viewBox="0 0 200 200" version="1.1">
<defs>
<filter id="alpha" filterUnits="objectBoundingBox" x="0%" y="0%" width="100%" height="100%">
  <feColorMatrix type="matrix" in="SourceGraphic" values="0 0 0 0 1 0 0 0 0 1 0 0 0 0 1 0 0 0 1 0"/>
</filter>
<mask id="mask0">
  <g filter="url(#alpha)">
<rect x="0" y="0" width="200" height="200" style="fill:rgb(0%,0%,0%);fill-opacity:0.972549;stroke:none;"/>
  </g>
</mask>
<clipPath id="clip1">
  <rect x="0" y="0" width="200" height="200"/>
</clipPath>
<g id="surface5" clip-path="url(#clip1)">
<path style=" stroke:none;fill-rule:evenodd;fill:rgb(0.392157%,0.784314%,0.392157%);fill-opacity:1;" d="M 163.476562 -0.195312 C 165.558594 -0.195312 167.644531 -0.195312 169.726562 -0.195312 C 171.445312 0.550781 172.554688 1.855469 173.046875 3.710938 C 173.429688 15.0625 173.296875 26.390625 172.65625 37.695312 C 171.042969 40.222656 168.765625 41.070312 165.820312 40.234375 C 162.941406 38.140625 160.207031 35.863281 157.617188 33.398438 C 154.359375 36.65625 151.234375 40.042969 148.242188 43.554688 C 154.359375 43.878906 160.476562 44.074219 166.601562 44.140625 C 168.921875 44.765625 170.289062 46.265625 170.703125 48.632812 C 170.898438 76.367188 170.964844 104.101562 170.898438 131.835938 C 179.824219 131.050781 185.746094 134.828125 188.671875 143.164062 C 188.933594 158.269531 188.933594 173.371094 188.671875 188.476562 C 186.972656 194.277344 183.261719 198.054688 177.539062 199.804688 C 125.714844 199.804688 73.894531 199.804688 22.070312 199.804688 C 16.96875 198.285156 13.386719 195.03125 11.328125 190.039062 C 10.703125 184.59375 10.574219 179.125 10.9375 173.632812 C 11.613281 172.871094 12.460938 172.480469 13.476562 172.460938 C 14.867188 172.507812 15.84375 173.160156 16.40625 174.414062 C 16.535156 178.710938 16.667969 183.007812 16.796875 187.304688 C 17.902344 190.496094 20.050781 192.644531 23.242188 193.75 C 72.332031 193.945312 121.417969 194.011719 170.507812 193.945312 C 176.894531 195.085938 180.996094 192.613281 182.8125 186.523438 C 182.878906 179.558594 182.941406 172.589844 183.007812 165.625 C 183.066406 158.242188 182.871094 150.886719 182.421875 143.554688 C 181.308594 140.753906 179.292969 138.996094 176.367188 138.28125 C 174.417969 138.085938 172.464844 138.019531 170.507812 138.085938 C 121.289062 138.019531 72.070312 138.085938 22.851562 138.28125 C 19.800781 139.246094 17.785156 141.265625 16.796875 144.335938 C 16.667969 150.457031 16.535156 156.574219 16.40625 162.695312 C 15.855469 163.980469 14.878906 164.632812 13.476562 164.648438 C 12.375 164.8125 11.527344 164.421875 10.9375 163.476562 C 10.675781 156.707031 10.675781 149.933594 10.9375 143.164062 C 12.394531 137.667969 15.847656 134.085938 21.289062 132.421875 C 23.867188 131.925781 26.472656 131.730469 29.101562 131.835938 C 29.035156 124.933594 29.101562 118.03125 29.296875 111.132812 C 30.050781 109.207031 31.417969 107.972656 33.398438 107.421875 C 42.644531 107.160156 51.886719 107.160156 61.132812 107.421875 C 63.441406 108.039062 64.808594 109.535156 65.234375 111.914062 C 65.429688 118.554688 65.496094 125.195312 65.429688 131.835938 C 70.898438 131.835938 76.367188 131.835938 81.835938 131.835938 C 81.902344 119.074219 81.835938 106.316406 81.640625 93.554688 C 75.78125 88.214844 69.921875 82.878906 64.0625 77.539062 C 58.023438 84.492188 51.835938 91.328125 45.507812 98.046875 C 39.507812 101.8125 33.972656 101.226562 28.90625 96.289062 C 25.519531 91.339844 25.519531 86.394531 28.90625 81.445312 C 37.515625 72.1875 45.976562 62.8125 54.296875 53.320312 C 58.59375 49.210938 63.476562 48.363281 68.945312 50.78125 C 76.671875 57.269531 84.222656 63.976562 91.601562 70.898438 C 100.921875 61.125 110.035156 51.164062 118.945312 41.015625 C 120.214844 40.304688 121.519531 40.238281 122.851562 40.820312 C 123.539062 42.179688 123.734375 43.609375 123.4375 45.117188 C 113.75 55.976562 103.917969 66.71875 93.945312 77.34375 C 91.710938 78.339844 89.757812 77.949219 88.085938 76.171875 C 80.910156 69.386719 73.621094 62.746094 66.210938 56.25 C 64.554688 55.679688 62.863281 55.550781 61.132812 55.859375 C 59.128906 57.472656 57.238281 59.230469 55.46875 61.132812 C 48.175781 69.207031 40.886719 77.277344 33.59375 85.351562 C 31.691406 89.128906 32.539062 92.058594 36.132812 94.140625 C 38.847656 94.753906 41.125 94.039062 42.96875 91.992188 C 49.007812 85.039062 55.195312 78.203125 61.523438 71.484375 C 63.621094 70.613281 65.574219 70.871094 67.382812 72.265625 C 74.558594 79.050781 81.847656 85.691406 89.257812 92.1875 C 92.753906 93.886719 95.683594 93.171875 98.046875 90.039062 C 116.71875 69.152344 135.53125 48.386719 154.492188 27.734375 C 156.109375 26.617188 157.800781 26.488281 159.570312 27.34375 C 162.105469 29.164062 164.449219 31.179688 166.601562 33.398438 C 166.625 33.609375 166.753906 33.742188 166.992188 33.789062 C 167.382812 24.417969 167.511719 15.042969 167.382812 5.664062 C 166.257812 5.542969 165.214844 5.675781 164.257812 6.054688 C 155.894531 6.644531 147.5625 7.492188 139.257812 8.59375 C 141.664062 10.609375 143.941406 12.757812 146.09375 15.039062 C 146.839844 16.589844 146.839844 18.152344 146.09375 19.726562 C 141.617188 25.117188 136.996094 30.390625 132.226562 35.546875 C 130.722656 36.378906 129.289062 36.316406 127.929688 35.351562 C 127.6875 35.308594 127.492188 35.179688 127.34375 34.960938 C 126.9375 33.386719 127.199219 31.953125 128.125 30.664062 C 132.242188 26.417969 136.210938 22.058594 140.039062 17.578125 C 137.648438 15.566406 135.371094 13.417969 133.203125 11.132812 C 131.402344 7.160156 132.507812 4.363281 136.523438 2.734375 C 145.578125 1.855469 154.5625 0.878906 163.476562 -0.195312 Z M 134.179688 58.789062 C 134.570312 83.070312 134.699219 107.421875 134.570312 131.835938 C 129.101562 131.835938 123.632812 131.835938 118.164062 131.835938 C 118.097656 113.347656 118.164062 94.855469 118.359375 76.367188 C 123.714844 70.558594 128.988281 64.699219 134.179688 58.789062 Z M 134.179688 58.789062 "/>
</g>
</defs>
<g id="surface1">
<use xlink:href="#surface5" mask="url(#mask0)"/>
<path style=" stroke:none;fill-rule:evenodd;fill:rgb(60%,89.019608%,60.784314%);fill-opacity:1;" d="M 164.257812 6.054688 C 165.167969 6.054688 166.082031 6.054688 166.992188 6.054688 C 167.121094 15.238281 166.992188 24.351562 166.601562 33.398438 C 164.449219 31.179688 162.105469 29.164062 159.570312 27.34375 C 157.800781 26.488281 156.109375 26.617188 154.492188 27.734375 C 135.53125 48.386719 116.71875 69.152344 98.046875 90.039062 C 95.683594 93.171875 92.753906 93.886719 89.257812 92.1875 C 81.847656 85.691406 74.558594 79.050781 67.382812 72.265625 C 65.574219 70.871094 63.621094 70.613281 61.523438 71.484375 C 55.195312 78.203125 49.007812 85.039062 42.96875 91.992188 C 41.125 94.039062 38.847656 94.753906 36.132812 94.140625 C 32.539062 92.058594 31.691406 89.128906 33.59375 85.351562 C 40.886719 77.277344 48.175781 69.207031 55.46875 61.132812 C 57.238281 59.230469 59.128906 57.472656 61.132812 55.859375 C 62.863281 55.550781 64.554688 55.679688 66.210938 56.25 C 73.621094 62.746094 80.910156 69.386719 88.085938 76.171875 C 89.757812 77.949219 91.710938 78.339844 93.945312 77.34375 C 103.917969 66.71875 113.75 55.976562 123.4375 45.117188 C 123.734375 43.609375 123.539062 42.179688 122.851562 40.820312 C 124.53125 39.007812 126.226562 37.183594 127.929688 35.351562 C 129.289062 36.316406 130.722656 36.378906 132.226562 35.546875 C 136.996094 30.390625 141.617188 25.117188 146.09375 19.726562 C 146.839844 18.152344 146.839844 16.589844 146.09375 15.039062 C 143.941406 12.757812 141.664062 10.609375 139.257812 8.59375 C 147.5625 7.492188 155.894531 6.644531 164.257812 6.054688 Z M 164.257812 6.054688 "/>
<path style=" stroke:none;fill-rule:evenodd;fill:rgb(19.215686%,28.627451%,19.215686%);fill-opacity:1;" d="M 164.257812 6.054688 C 165.214844 5.675781 166.257812 5.542969 167.382812 5.664062 C 167.511719 15.042969 167.382812 24.417969 166.992188 33.789062 C 166.753906 33.742188 166.625 33.609375 166.601562 33.398438 C 166.992188 24.351562 167.121094 15.238281 166.992188 6.054688 C 166.082031 6.054688 165.167969 6.054688 164.257812 6.054688 Z M 164.257812 6.054688 "/>
<path style=" stroke:none;fill-rule:evenodd;fill:rgb(37.254902%,71.372549%,99.607843%);fill-opacity:1;" d="M 156.054688 50.195312 C 156.054688 77.410156 156.054688 104.621094 156.054688 131.835938 C 150.976562 131.835938 145.898438 131.835938 140.820312 131.835938 C 140.820312 105.011719 140.820312 78.191406 140.820312 51.367188 C 140.996094 50.992188 141.257812 50.667969 141.601562 50.390625 C 146.417969 50.195312 151.234375 50.128906 156.054688 50.195312 Z M 156.054688 50.195312 "/>
<path style=" stroke:none;fill-rule:evenodd;fill:rgb(14.901961%,64.705882%,99.607843%);fill-opacity:1;" d="M 156.054688 50.195312 C 158.917969 50.195312 161.785156 50.195312 164.648438 50.195312 C 164.648438 77.410156 164.648438 104.621094 164.648438 131.835938 C 161.785156 131.835938 158.917969 131.835938 156.054688 131.835938 C 156.054688 104.621094 156.054688 77.410156 156.054688 50.195312 Z M 156.054688 50.195312 "/>
<path style=" stroke:none;fill-rule:evenodd;fill:rgb(18.823529%,40%,57.254902%);fill-opacity:1;" d="M 164.648438 50.195312 C 165.039062 77.472656 165.167969 104.816406 165.039062 132.226562 C 156.835938 132.226562 148.632812 132.226562 140.429688 132.226562 C 140.300781 105.207031 140.429688 78.253906 140.820312 51.367188 C 140.820312 78.191406 140.820312 105.011719 140.820312 131.835938 C 145.898438 131.835938 150.976562 131.835938 156.054688 131.835938 C 158.917969 131.835938 161.785156 131.835938 164.648438 131.835938 C 164.648438 104.621094 164.648438 77.410156 164.648438 50.195312 Z M 164.648438 50.195312 "/>
<path style=" stroke:none;fill-rule:evenodd;fill:rgb(14.509804%,64.705882%,99.215686%);fill-opacity:1;" d="M 111.914062 83.398438 C 111.914062 99.542969 111.914062 115.691406 111.914062 131.835938 C 109.050781 131.835938 106.183594 131.835938 103.320312 131.835938 C 103.320312 118.816406 103.320312 105.792969 103.320312 92.773438 C 106.050781 89.519531 108.917969 86.394531 111.914062 83.398438 Z M 111.914062 83.398438 "/>
<path style=" stroke:none;fill-rule:evenodd;fill:rgb(37.254902%,71.372549%,99.607843%);fill-opacity:1;" d="M 103.320312 92.773438 C 103.320312 105.792969 103.320312 118.816406 103.320312 131.835938 C 98.242188 131.835938 93.164062 131.835938 88.085938 131.835938 C 88.085938 120.636719 88.085938 109.441406 88.085938 98.242188 C 94.433594 99.988281 99.511719 98.164062 103.320312 92.773438 Z M 103.320312 92.773438 "/>
<path style=" stroke:none;fill-rule:evenodd;fill:rgb(17.647059%,38.431373%,54.901961%);fill-opacity:1;" d="M 34.960938 113.085938 C 43.164062 113.085938 51.367188 113.085938 59.570312 113.085938 C 59.570312 119.464844 59.570312 125.847656 59.570312 132.226562 C 51.367188 132.226562 43.164062 132.226562 34.960938 132.226562 C 34.960938 125.847656 34.960938 119.464844 34.960938 113.085938 Z M 34.960938 113.085938 "/>
<path style=" stroke:none;fill-rule:evenodd;fill:rgb(14.901961%,64.705882%,99.607843%);fill-opacity:1;" d="M 50.585938 113.476562 C 53.449219 113.476562 56.316406 113.476562 59.179688 113.476562 C 59.179688 119.597656 59.179688 125.714844 59.179688 131.835938 C 56.316406 131.835938 53.449219 131.835938 50.585938 131.835938 C 50.585938 125.714844 50.585938 119.597656 50.585938 113.476562 Z M 50.585938 113.476562 "/>
<path style=" stroke:none;fill-rule:evenodd;fill:rgb(37.254902%,71.372549%,100%);fill-opacity:1;" d="M 50.585938 113.476562 C 50.585938 119.597656 50.585938 125.714844 50.585938 131.835938 C 45.507812 131.835938 40.429688 131.835938 35.351562 131.835938 C 35.351562 125.714844 35.351562 119.597656 35.351562 113.476562 C 40.429688 113.476562 45.507812 113.476562 50.585938 113.476562 Z M 50.585938 113.476562 "/>
<path style=" stroke:none;fill-rule:evenodd;fill:rgb(16.470588%,37.254902%,53.333333%);fill-opacity:1;" d="M 88.085938 98.242188 C 88.085938 109.441406 88.085938 120.636719 88.085938 131.835938 C 93.164062 131.835938 98.242188 131.835938 103.320312 131.835938 C 106.183594 131.835938 109.050781 131.835938 111.914062 131.835938 C 111.914062 115.691406 111.914062 99.542969 111.914062 83.398438 C 112.304688 99.386719 112.433594 115.660156 112.304688 132.226562 C 104.101562 132.226562 95.898438 132.226562 87.695312 132.226562 C 87.566406 120.832031 87.695312 109.503906 88.085938 98.242188 Z M 88.085938 98.242188 "/>
<path style=" stroke:none;fill-rule:evenodd;fill:rgb(78.039216%,95.686275%,68.235294%);fill-opacity:1;" d="M 170.507812 138.085938 C 172.003906 139.652344 173.109375 141.476562 173.828125 143.554688 C 174.089844 158.269531 174.089844 172.980469 173.828125 187.695312 C 173.226562 190.070312 172.121094 192.152344 170.507812 193.945312 C 121.417969 194.011719 72.332031 193.945312 23.242188 193.75 C 20.050781 192.644531 17.902344 190.496094 16.796875 187.304688 C 16.667969 183.007812 16.535156 178.710938 16.40625 174.414062 C 15.84375 173.160156 14.867188 172.507812 13.476562 172.460938 C 13.476562 169.855469 13.476562 167.253906 13.476562 164.648438 C 14.878906 164.632812 15.855469 163.980469 16.40625 162.695312 C 16.535156 156.574219 16.667969 150.457031 16.796875 144.335938 C 17.785156 141.265625 19.800781 139.246094 22.851562 138.28125 C 72.070312 138.085938 121.289062 138.019531 170.507812 138.085938 Z M 170.507812 138.085938 "/>
<path style=" stroke:none;fill-rule:evenodd;fill:rgb(60.784314%,89.803922%,61.176471%);fill-opacity:1;" d="M 170.507812 138.085938 C 172.464844 138.019531 174.417969 138.085938 176.367188 138.28125 C 179.292969 138.996094 181.308594 140.753906 182.421875 143.554688 C 182.871094 150.886719 183.066406 158.242188 183.007812 165.625 C 182.941406 172.589844 182.878906 179.558594 182.8125 186.523438 C 180.996094 192.613281 176.894531 195.085938 170.507812 193.945312 C 172.121094 192.152344 173.226562 190.070312 173.828125 187.695312 C 174.089844 172.980469 174.089844 158.269531 173.828125 143.554688 C 173.109375 141.476562 172.003906 139.652344 170.507812 138.085938 Z M 170.507812 138.085938 "/>
<path style=" stroke:none;fill-rule:evenodd;fill:rgb(1.568627%,1.568627%,1.176471%);fill-opacity:1;" d="M 32.226562 150.976562 C 35.875 150.910156 39.519531 150.976562 43.164062 151.171875 C 50.054688 154.390625 51.8125 159.402344 48.4375 166.210938 C 45.140625 169.820312 41.039062 171.253906 36.132812 170.507812 C 36.304688 173.804688 36.109375 177.0625 35.546875 180.273438 C 33.699219 181.484375 32.136719 181.222656 30.859375 179.492188 C 30.597656 170.378906 30.597656 161.261719 30.859375 152.148438 C 31.308594 151.703125 31.761719 151.3125 32.226562 150.976562 Z M 32.226562 150.976562 "/>
<path style=" stroke:none;fill-rule:evenodd;fill:rgb(1.568627%,1.960784%,1.176471%);fill-opacity:1;" d="M 62.695312 171.679688 C 62.585938 171.371094 62.390625 171.109375 62.109375 170.898438 C 61.914062 173.5 61.847656 176.101562 61.914062 178.710938 C 60.988281 180.929688 59.425781 181.515625 57.226562 180.46875 C 56.757812 180.117188 56.429688 179.660156 56.25 179.101562 C 55.988281 170.378906 55.988281 161.652344 56.25 152.929688 C 56.554688 152.230469 57.011719 151.644531 57.617188 151.171875 C 61.261719 150.910156 64.910156 150.910156 68.554688 151.171875 C 74.464844 153.808594 76.351562 158.171875 74.21875 164.257812 C 72.785156 166.601562 70.765625 168.230469 68.164062 169.140625 C 70.976562 171.816406 73.320312 174.8125 75.195312 178.125 C 74.574219 180.78125 73.011719 181.5625 70.507812 180.46875 C 67.8125 177.578125 65.207031 174.648438 62.695312 171.679688 Z M 62.695312 171.679688 "/>
<path style=" stroke:none;fill-rule:evenodd;fill:rgb(1.176471%,1.568627%,1.176471%);fill-opacity:1;" d="M 91.601562 150.976562 C 100.847656 149.890625 107.03125 153.667969 110.15625 162.304688 C 111.425781 171.296875 107.84375 177.351562 99.414062 180.46875 C 89.132812 182.132812 82.816406 177.902344 80.46875 167.773438 C 80.070312 159.453125 83.78125 153.855469 91.601562 150.976562 Z M 91.601562 150.976562 "/>
<path style=" stroke:none;fill-rule:evenodd;fill:rgb(1.176471%,1.568627%,0.784314%);fill-opacity:1;" d="M 118.164062 150.976562 C 122.332031 150.910156 126.5 150.976562 130.664062 151.171875 C 132.808594 153.15625 132.675781 154.980469 130.273438 156.640625 C 127.671875 156.835938 125.070312 156.902344 122.460938 156.835938 C 122.460938 158.789062 122.460938 160.742188 122.460938 162.695312 C 124.808594 162.628906 127.152344 162.695312 129.492188 162.890625 C 131.925781 164.519531 132.054688 166.34375 129.882812 168.359375 C 127.414062 168.554688 124.9375 168.621094 122.460938 168.554688 C 122.625 172.363281 122.429688 176.136719 121.875 179.882812 C 119.875 181.59375 118.179688 181.332031 116.796875 179.101562 C 116.535156 170.246094 116.535156 161.394531 116.796875 152.539062 C 117.335938 152.066406 117.789062 151.546875 118.164062 150.976562 Z M 118.164062 150.976562 "/>
<path style=" stroke:none;fill-rule:evenodd;fill:rgb(1.960784%,2.352941%,1.568627%);fill-opacity:1;" d="M 139.648438 150.976562 C 140.570312 150.914062 141.480469 150.976562 142.382812 151.171875 C 143.097656 151.367188 143.554688 151.824219 143.75 152.539062 C 144.011719 161.523438 144.011719 170.507812 143.75 179.492188 C 141.734375 181.664062 139.910156 181.535156 138.28125 179.101562 C 138.019531 170.246094 138.019531 161.394531 138.28125 152.539062 C 138.820312 152.066406 139.273438 151.546875 139.648438 150.976562 Z M 139.648438 150.976562 "/>
<path style=" stroke:none;fill-rule:evenodd;fill:rgb(0.784314%,1.176471%,0.392157%);fill-opacity:1;" d="M 151.367188 150.976562 C 156.835938 150.910156 162.304688 150.976562 167.773438 151.171875 C 169.335938 152.863281 169.335938 154.558594 167.773438 156.25 C 165.953125 156.445312 164.132812 156.511719 162.304688 156.445312 C 162.371094 164 162.304688 171.550781 162.109375 179.101562 C 160.285156 181.707031 158.464844 181.707031 156.640625 179.101562 C 156.445312 171.550781 156.378906 164 156.445312 156.445312 C 154.746094 156.511719 153.054688 156.445312 151.367188 156.25 C 149.292969 154.445312 149.292969 152.6875 151.367188 150.976562 Z M 151.367188 150.976562 "/>
<path style=" stroke:none;fill-rule:evenodd;fill:rgb(77.254902%,94.509804%,67.843137%);fill-opacity:1;" d="M 36.523438 156.835938 C 38.351562 156.769531 40.171875 156.835938 41.992188 157.03125 C 44.800781 158.921875 45.0625 161.136719 42.773438 163.671875 C 40.796875 164.554688 38.714844 164.878906 36.523438 164.648438 C 36.523438 162.042969 36.523438 159.441406 36.523438 156.835938 Z M 36.523438 156.835938 "/>
<path style=" stroke:none;fill-rule:evenodd;fill:rgb(77.647059%,94.901961%,67.843137%);fill-opacity:1;" d="M 66.601562 156.835938 C 69.234375 157.675781 69.949219 159.371094 68.75 161.914062 C 68.234375 162.691406 67.519531 163.144531 66.601562 163.28125 C 65.175781 163.476562 63.742188 163.539062 62.304688 163.476562 C 62.304688 161.261719 62.304688 159.050781 62.304688 156.835938 C 63.738281 156.835938 65.167969 156.835938 66.601562 156.835938 Z M 66.601562 156.835938 "/>
<path style=" stroke:none;fill-rule:evenodd;fill:rgb(77.647059%,95.294118%,67.843137%);fill-opacity:1;" d="M 92.382812 156.835938 C 101.316406 156.066406 105.285156 160.105469 104.296875 168.945312 C 101.210938 174.949219 96.589844 176.578125 90.429688 173.828125 C 86.148438 170.613281 85.039062 166.511719 87.109375 161.523438 C 88.457031 159.457031 90.214844 157.894531 92.382812 156.835938 Z M 92.382812 156.835938 "/>
<path style=" stroke:none;fill-rule:evenodd;fill:rgb(45.490196%,55.686275%,40%);fill-opacity:1;" d="M 66.601562 156.835938 C 65.167969 156.835938 63.738281 156.835938 62.304688 156.835938 C 62.304688 159.050781 62.304688 161.261719 62.304688 163.476562 C 61.917969 161.207031 61.789062 158.863281 61.914062 156.445312 C 63.554688 156.320312 65.117188 156.453125 66.601562 156.835938 Z M 66.601562 156.835938 "/>
<path style=" stroke:none;fill-rule:evenodd;fill:rgb(54.509804%,66.666667%,47.45098%);fill-opacity:1;" d="M 62.695312 171.679688 C 62.433594 174.023438 62.175781 176.367188 61.914062 178.710938 C 61.847656 176.101562 61.914062 173.5 62.109375 170.898438 C 62.390625 171.109375 62.585938 171.371094 62.695312 171.679688 Z M 62.695312 171.679688 "/>
</g>
</svg>
