<?xml version="1.0" encoding="UTF-8"?>
<svg xmlns="http://www.w3.org/2000/svg" xmlns:xlink="http://www.w3.org/1999/xlink" width="200px" height="200px" viewBox="0 0 200 200" version="1.1">
<g id="surface1">
<path style=" stroke:none;fill-rule:evenodd;fill:rgb(99.607843%,99.607843%,99.607843%);fill-opacity:1;" d="M -0.242188 -0.242188 C 66.425781 -0.242188 133.09375 -0.242188 199.757812 -0.242188 C 199.757812 66.425781 199.757812 133.09375 199.757812 199.757812 C 133.09375 199.757812 66.425781 199.757812 -0.242188 199.757812 C -0.242188 133.09375 -0.242188 66.425781 -0.242188 -0.242188 Z M -0.242188 -0.242188 "/>
<path style=" stroke:none;fill-rule:evenodd;fill:rgb(1.568627%,76.862745%,70.980392%);fill-opacity:1;" d="M 92.066406 15.625 C 127.882812 14.097656 155.046875 28.519531 173.558594 58.894531 C 187.339844 86.128906 187.339844 113.375 173.558594 140.625 C 154.800781 171.359375 127.316406 185.703125 91.105469 183.652344 C 56 178.511719 32.203125 159.363281 19.710938 126.203125 C 9.953125 91.113281 18.207031 61.066406 44.472656 36.058594 C 58.296875 24.496094 74.160156 17.6875 92.066406 15.625 Z M 92.066406 15.625 "/>
<path style=" stroke:none;fill-rule:evenodd;fill:rgb(99.215686%,69.803922%,44.705882%);fill-opacity:1;" d="M 103.605469 43.992188 C 90.304688 43.992188 77.003906 43.992188 63.703125 43.992188 C 64.5 39.90625 66.984375 37.824219 71.152344 37.742188 C 82.09375 39.496094 92.914062 41.578125 103.605469 43.992188 Z M 103.605469 43.992188 "/>
<path style=" stroke:none;fill-rule:evenodd;fill:rgb(97.647059%,97.647059%,97.647059%);fill-opacity:1;" d="M 63.703125 43.992188 C 77.003906 43.992188 90.304688 43.992188 103.605469 43.992188 C 114.984375 43.910156 126.363281 43.992188 137.742188 44.230469 C 141.5625 45.40625 143.964844 47.890625 144.953125 51.683594 C 144.953125 57.773438 144.953125 63.863281 144.953125 69.953125 C 143.476562 67.914062 141.632812 66.3125 139.421875 65.144531 C 137.425781 65.617188 135.90625 66.738281 134.855469 68.507812 C 134.535156 68.507812 134.375 68.667969 134.375 68.992188 C 118.835938 86.277344 103.289062 103.585938 87.742188 120.914062 C 87.101562 123.628906 86.460938 126.351562 85.816406 129.085938 C 85.367188 129.921875 85.367188 130.722656 85.816406 131.492188 C 86.410156 131.132812 87.054688 130.972656 87.742188 131.007812 C 90.160156 130.128906 92.566406 129.324219 94.953125 128.605469 C 110.839844 111.597656 126.382812 94.289062 141.585938 76.683594 C 141.90625 76.683594 142.066406 76.523438 142.066406 76.203125 C 143.371094 75.347656 144.332031 74.226562 144.953125 72.835938 C 144.953125 82.292969 144.953125 91.746094 144.953125 101.203125 C 145.03125 116.585938 144.953125 131.972656 144.710938 147.355469 C 143.9375 151.894531 141.292969 154.621094 136.777344 155.527344 C 136.617188 155.527344 136.457031 155.527344 136.296875 155.527344 C 123.074219 155.371094 109.933594 155.53125 96.875 156.007812 C 85.371094 155.613281 73.832031 155.375 62.257812 155.289062 C 58.753906 153.945312 56.511719 151.460938 55.527344 147.835938 C 55.527344 147.195312 55.527344 146.554688 55.527344 145.914062 C 57.617188 145.992188 59.703125 145.914062 61.777344 145.671875 C 63.511719 144.078125 63.671875 142.316406 62.257812 140.382812 C 60.023438 140.144531 57.777344 140.0625 55.527344 140.144531 C 55.527344 137.257812 55.527344 134.375 55.527344 131.492188 C 57.617188 131.570312 59.703125 131.488281 61.777344 131.25 C 63.695312 129.464844 63.695312 127.703125 61.777344 125.960938 C 59.703125 125.722656 57.617188 125.640625 55.527344 125.722656 C 55.527344 122.835938 55.527344 119.953125 55.527344 117.066406 C 57.617188 117.148438 59.703125 117.066406 61.777344 116.828125 C 63.695312 115.042969 63.695312 113.277344 61.777344 111.539062 C 59.703125 111.296875 57.617188 111.21875 55.527344 111.296875 C 55.527344 108.414062 55.527344 105.527344 55.527344 102.644531 C 57.617188 102.722656 59.703125 102.644531 61.777344 102.402344 C 63.253906 101.167969 63.574219 99.644531 62.742188 97.835938 C 62.488281 97.503906 62.167969 97.261719 61.777344 97.117188 C 59.703125 96.875 57.617188 96.796875 55.527344 96.875 C 55.527344 93.992188 55.527344 91.105469 55.527344 88.222656 C 57.777344 88.300781 60.023438 88.21875 62.257812 87.980469 C 63.671875 86.050781 63.511719 84.285156 61.777344 82.691406 C 59.703125 82.453125 57.617188 82.371094 55.527344 82.453125 C 55.527344 79.566406 55.527344 76.683594 55.527344 73.796875 C 57.777344 73.878906 60.023438 73.796875 62.257812 73.558594 C 63.671875 71.625 63.511719 69.863281 61.777344 68.269531 C 59.703125 68.03125 57.617188 67.949219 55.527344 68.027344 C 55.527344 65.144531 55.527344 62.257812 55.527344 59.375 C 57.777344 59.453125 60.023438 59.375 62.257812 59.132812 C 63.671875 57.203125 63.511719 55.441406 61.777344 53.847656 C 59.703125 53.605469 57.617188 53.527344 55.527344 53.605469 C 55.84375 48.324219 58.570312 45.117188 63.703125 43.992188 Z M 63.703125 43.992188 "/>
<path style=" stroke:none;fill-rule:evenodd;fill:rgb(99.215686%,68.235294%,42.352941%);fill-opacity:1;" d="M 144.953125 51.683594 C 149.035156 52.695312 151.28125 55.339844 151.683594 59.617188 C 149.558594 73.566406 147.3125 87.425781 144.953125 101.203125 C 144.953125 91.746094 144.953125 82.292969 144.953125 72.835938 C 144.953125 71.875 144.953125 70.914062 144.953125 69.953125 C 144.953125 63.863281 144.953125 57.773438 144.953125 51.683594 Z M 144.953125 51.683594 "/>
<path style=" stroke:none;fill-rule:evenodd;fill:rgb(29.803922%,29.019608%,29.411765%);fill-opacity:1;" d="M 55.527344 53.605469 C 57.617188 53.527344 59.703125 53.605469 61.777344 53.847656 C 63.511719 55.441406 63.671875 57.203125 62.257812 59.132812 C 60.023438 59.375 57.777344 59.453125 55.527344 59.375 C 53.28125 59.453125 51.035156 59.375 48.796875 59.132812 C 47.386719 57.203125 47.546875 55.441406 49.277344 53.847656 C 51.355469 53.605469 53.4375 53.527344 55.527344 53.605469 Z M 55.527344 53.605469 "/>
<path style=" stroke:none;fill-rule:evenodd;fill:rgb(29.411765%,29.019608%,29.019608%);fill-opacity:1;" d="M 55.527344 68.027344 C 57.617188 67.949219 59.703125 68.03125 61.777344 68.269531 C 63.511719 69.863281 63.671875 71.625 62.257812 73.558594 C 60.023438 73.796875 57.777344 73.878906 55.527344 73.796875 C 53.28125 73.878906 51.035156 73.796875 48.796875 73.558594 C 47.386719 71.625 47.546875 69.863281 49.277344 68.269531 C 51.355469 68.03125 53.4375 67.949219 55.527344 68.027344 Z M 55.527344 68.027344 "/>
<path style=" stroke:none;fill-rule:evenodd;fill:rgb(98.823529%,58.823529%,74.509804%);fill-opacity:1;" d="M 144.953125 69.953125 C 144.953125 70.914062 144.953125 71.875 144.953125 72.835938 C 144.332031 74.226562 143.371094 75.347656 142.066406 76.203125 C 139.664062 73.636719 137.257812 71.074219 134.855469 68.507812 C 135.90625 66.738281 137.425781 65.617188 139.421875 65.144531 C 141.632812 66.3125 143.476562 67.914062 144.953125 69.953125 Z M 144.953125 69.953125 "/>
<path style=" stroke:none;fill-rule:evenodd;fill:rgb(50.196078%,49.803922%,51.372549%);fill-opacity:1;" d="M 134.375 68.992188 C 134.375 68.667969 134.535156 68.507812 134.855469 68.507812 C 137.257812 71.074219 139.664062 73.636719 142.066406 76.203125 C 142.066406 76.523438 141.90625 76.683594 141.585938 76.683594 C 140.785156 76.042969 139.984375 75.402344 139.183594 74.757812 C 138.566406 73.34375 137.605469 72.21875 136.296875 71.394531 C 135.640625 70.582031 135 69.78125 134.375 68.992188 Z M 134.375 68.992188 "/>
<path style=" stroke:none;fill-rule:evenodd;fill:rgb(99.607843%,81.568627%,3.921569%);fill-opacity:1;" d="M 136.296875 71.394531 C 137.605469 72.21875 138.566406 73.34375 139.183594 74.757812 C 123.796875 91.90625 108.414062 109.054688 93.027344 126.203125 C 91.90625 125.402344 90.945312 124.4375 90.144531 123.316406 C 105.3125 105.898438 120.699219 88.589844 136.296875 71.394531 Z M 136.296875 71.394531 "/>
<path style=" stroke:none;fill-rule:evenodd;fill:rgb(29.411765%,29.019608%,29.019608%);fill-opacity:1;" d="M 55.527344 82.453125 C 57.617188 82.371094 59.703125 82.453125 61.777344 82.691406 C 63.511719 84.285156 63.671875 86.050781 62.257812 87.980469 C 60.023438 88.21875 57.777344 88.300781 55.527344 88.222656 C 53.28125 88.300781 51.035156 88.21875 48.796875 87.980469 C 47.390625 86.027344 47.550781 84.265625 49.277344 82.691406 C 51.355469 82.453125 53.4375 82.371094 55.527344 82.453125 Z M 55.527344 82.453125 "/>
<path style=" stroke:none;fill-rule:evenodd;fill:rgb(29.411765%,29.411765%,29.411765%);fill-opacity:1;" d="M 55.527344 96.875 C 57.617188 96.796875 59.703125 96.875 61.777344 97.117188 C 62.167969 97.261719 62.488281 97.503906 62.742188 97.835938 C 63.574219 99.644531 63.253906 101.167969 61.777344 102.402344 C 59.703125 102.644531 57.617188 102.722656 55.527344 102.644531 C 55.207031 102.644531 54.886719 102.644531 54.566406 102.644531 C 52.636719 102.722656 50.714844 102.644531 48.796875 102.402344 C 47.515625 100.640625 47.515625 98.878906 48.796875 97.117188 C 51.035156 96.875 53.28125 96.796875 55.527344 96.875 Z M 55.527344 96.875 "/>
<path style=" stroke:none;fill-rule:evenodd;fill:rgb(99.215686%,76.470588%,3.529412%);fill-opacity:1;" d="M 134.375 68.992188 C 135 69.78125 135.640625 70.582031 136.296875 71.394531 C 120.699219 88.589844 105.3125 105.898438 90.144531 123.316406 C 89.234375 122.609375 88.433594 121.808594 87.742188 120.914062 C 103.289062 103.585938 118.835938 86.277344 134.375 68.992188 Z M 134.375 68.992188 "/>
<path style=" stroke:none;fill-rule:evenodd;fill:rgb(99.215686%,76.470588%,3.529412%);fill-opacity:1;" d="M 139.183594 74.757812 C 139.984375 75.402344 140.785156 76.042969 141.585938 76.683594 C 126.382812 94.289062 110.839844 111.597656 94.953125 128.605469 C 93.949219 128.085938 93.308594 127.28125 93.027344 126.203125 C 108.414062 109.054688 123.796875 91.90625 139.183594 74.757812 Z M 139.183594 74.757812 "/>
<path style=" stroke:none;fill-rule:evenodd;fill:rgb(96.470588%,67.45098%,42.745098%);fill-opacity:1;" d="M 54.566406 102.644531 C 54.886719 102.644531 55.207031 102.644531 55.527344 102.644531 C 55.527344 105.527344 55.527344 108.414062 55.527344 111.296875 C 54.726562 111.296875 53.925781 111.296875 53.125 111.296875 C 53.425781 108.378906 53.90625 105.496094 54.566406 102.644531 Z M 54.566406 102.644531 "/>
<path style=" stroke:none;fill-rule:evenodd;fill:rgb(29.411765%,29.019608%,29.019608%);fill-opacity:1;" d="M 53.125 111.296875 C 53.925781 111.296875 54.726562 111.296875 55.527344 111.296875 C 57.617188 111.21875 59.703125 111.296875 61.777344 111.539062 C 63.695312 113.277344 63.695312 115.042969 61.777344 116.828125 C 59.703125 117.066406 57.617188 117.148438 55.527344 117.066406 C 54.40625 117.066406 53.285156 117.066406 52.164062 117.066406 C 47.925781 117.164062 46.800781 115.320312 48.796875 111.539062 C 50.230469 111.300781 51.675781 111.21875 53.125 111.296875 Z M 53.125 111.296875 "/>
<path style=" stroke:none;fill-rule:evenodd;fill:rgb(96.470588%,67.843137%,42.745098%);fill-opacity:1;" d="M 52.164062 117.066406 C 53.285156 117.066406 54.40625 117.066406 55.527344 117.066406 C 55.527344 119.953125 55.527344 122.835938 55.527344 125.722656 C 53.925781 125.722656 52.324219 125.722656 50.722656 125.722656 C 51.203125 122.839844 51.683594 119.957031 52.164062 117.066406 Z M 52.164062 117.066406 "/>
<path style=" stroke:none;fill-rule:evenodd;fill:rgb(29.019608%,29.019608%,29.019608%);fill-opacity:1;" d="M 50.722656 125.722656 C 52.324219 125.722656 53.925781 125.722656 55.527344 125.722656 C 57.617188 125.640625 59.703125 125.722656 61.777344 125.960938 C 63.695312 127.703125 63.695312 129.464844 61.777344 131.25 C 59.703125 131.488281 57.617188 131.570312 55.527344 131.492188 C 53.605469 131.492188 51.683594 131.492188 49.757812 131.492188 C 47.722656 130.183594 47.320312 128.417969 48.558594 126.203125 C 49.210938 125.777344 49.929688 125.617188 50.722656 125.722656 Z M 50.722656 125.722656 "/>
<path style=" stroke:none;fill-rule:evenodd;fill:rgb(86.27451%,69.019608%,53.72549%);fill-opacity:1;" d="M 87.742188 120.914062 C 88.433594 121.808594 89.234375 122.609375 90.144531 123.316406 C 90.945312 124.4375 91.90625 125.402344 93.027344 126.203125 C 93.308594 127.28125 93.949219 128.085938 94.953125 128.605469 C 92.566406 129.324219 90.160156 130.128906 87.742188 131.007812 C 87.257812 130.207031 86.617188 129.566406 85.816406 129.085938 C 86.460938 126.351562 87.101562 123.628906 87.742188 120.914062 Z M 87.742188 120.914062 "/>
<path style=" stroke:none;fill-rule:evenodd;fill:rgb(38.431373%,27.058824%,17.254902%);fill-opacity:1;" d="M 85.816406 129.085938 C 86.617188 129.566406 87.257812 130.207031 87.742188 131.007812 C 87.054688 130.972656 86.410156 131.132812 85.816406 131.492188 C 85.367188 130.722656 85.367188 129.921875 85.816406 129.085938 Z M 85.816406 129.085938 "/>
<path style=" stroke:none;fill-rule:evenodd;fill:rgb(96.862745%,67.45098%,42.745098%);fill-opacity:1;" d="M 49.757812 131.492188 C 51.683594 131.492188 53.605469 131.492188 55.527344 131.492188 C 55.527344 134.375 55.527344 137.257812 55.527344 140.144531 C 53.285156 140.144531 51.042969 140.144531 48.796875 140.144531 C 49.074219 137.253906 49.394531 134.371094 49.757812 131.492188 Z M 49.757812 131.492188 "/>
<path style=" stroke:none;fill-rule:evenodd;fill:rgb(29.411765%,29.019608%,29.411765%);fill-opacity:1;" d="M 48.796875 140.144531 C 51.042969 140.144531 53.285156 140.144531 55.527344 140.144531 C 57.777344 140.0625 60.023438 140.144531 62.257812 140.382812 C 63.671875 142.316406 63.511719 144.078125 61.777344 145.671875 C 59.703125 145.914062 57.617188 145.992188 55.527344 145.914062 C 54.246094 145.914062 52.964844 145.914062 51.683594 145.914062 C 47.773438 145.535156 46.8125 143.613281 48.796875 140.144531 Z M 48.796875 140.144531 "/>
<path style=" stroke:none;fill-rule:evenodd;fill:rgb(96.078431%,67.45098%,41.960784%);fill-opacity:1;" d="M 51.683594 145.914062 C 52.964844 145.914062 54.246094 145.914062 55.527344 145.914062 C 55.527344 146.554688 55.527344 147.195312 55.527344 147.835938 C 53.964844 147.695312 52.683594 147.054688 51.683594 145.914062 Z M 51.683594 145.914062 "/>
<path style=" stroke:none;fill-rule:evenodd;fill:rgb(99.215686%,78.823529%,63.137255%);fill-opacity:1;" d="M 96.875 156.007812 C 109.933594 155.53125 123.074219 155.371094 136.296875 155.527344 C 123.957031 155.847656 111.617188 156.167969 99.277344 156.492188 C 98.539062 156.105469 97.738281 155.945312 96.875 156.007812 Z M 96.875 156.007812 "/>
<path style=" stroke:none;fill-rule:evenodd;fill:rgb(98.823529%,68.627451%,42.745098%);fill-opacity:1;" d="M 136.296875 155.527344 C 136.457031 155.527344 136.617188 155.527344 136.777344 155.527344 C 135.976562 159.617188 133.492188 161.699219 129.328125 161.777344 C 119.28125 160.171875 109.265625 158.40625 99.277344 156.492188 C 111.617188 156.167969 123.957031 155.847656 136.296875 155.527344 Z M 136.296875 155.527344 "/>
</g>
</svg>
